<mxfile host="www.draw.io" modified="2023-04-12T08:58:49.134Z" agent="Mozilla/5.0 (Windows NT 10.0; Win64; x64) AppleWebKit/537.36 (KHTML, like Gecko) Chrome/112.0.0.0 Safari/537.36 Edg/112.0.1722.34" etag="6aNqaYE2NprIt8DP58Q8" version="21.1.6" type="device">
  <diagram name="Page-1" id="jMGsNsP6K4uDsAflV1x-">
    <mxGraphModel dx="1233" dy="1673" grid="1" gridSize="10" guides="1" tooltips="1" connect="1" arrows="1" fold="1" page="1" pageScale="1" pageWidth="850" pageHeight="1100" math="0" shadow="0">
      <root>
        <mxCell id="0" />
        <mxCell id="1" parent="0" />
        <mxCell id="6vPPAzTbXYT3v4ptLBmr-1" style="edgeStyle=orthogonalEdgeStyle;rounded=0;orthogonalLoop=1;jettySize=auto;html=1;entryX=0.5;entryY=0;entryDx=0;entryDy=0;" parent="1" source="6vPPAzTbXYT3v4ptLBmr-2" target="6vPPAzTbXYT3v4ptLBmr-4" edge="1">
          <mxGeometry relative="1" as="geometry" />
        </mxCell>
        <mxCell id="6vPPAzTbXYT3v4ptLBmr-2" value="&lt;b&gt;Login&lt;/b&gt;" style="rounded=1;whiteSpace=wrap;html=1;fontSize=12;glass=0;strokeWidth=1;shadow=0;" parent="1" vertex="1">
          <mxGeometry x="185" y="80" width="70" height="40" as="geometry" />
        </mxCell>
        <mxCell id="6vPPAzTbXYT3v4ptLBmr-3" style="edgeStyle=orthogonalEdgeStyle;rounded=0;orthogonalLoop=1;jettySize=auto;html=1;entryX=0.5;entryY=0;entryDx=0;entryDy=0;" parent="1" source="6vPPAzTbXYT3v4ptLBmr-4" target="6vPPAzTbXYT3v4ptLBmr-7" edge="1">
          <mxGeometry relative="1" as="geometry" />
        </mxCell>
        <mxCell id="6vPPAzTbXYT3v4ptLBmr-4" value="Pilih Menu" style="rounded=0;whiteSpace=wrap;html=1;" parent="1" vertex="1">
          <mxGeometry x="160" y="160" width="120" height="40" as="geometry" />
        </mxCell>
        <mxCell id="6vPPAzTbXYT3v4ptLBmr-5" style="edgeStyle=orthogonalEdgeStyle;rounded=0;orthogonalLoop=1;jettySize=auto;html=1;entryX=0.5;entryY=0;entryDx=0;entryDy=0;" parent="1" source="6vPPAzTbXYT3v4ptLBmr-7" target="6vPPAzTbXYT3v4ptLBmr-10" edge="1">
          <mxGeometry relative="1" as="geometry" />
        </mxCell>
        <mxCell id="6vPPAzTbXYT3v4ptLBmr-6" style="edgeStyle=orthogonalEdgeStyle;rounded=0;orthogonalLoop=1;jettySize=auto;html=1;" parent="1" source="6vPPAzTbXYT3v4ptLBmr-7" target="6vPPAzTbXYT3v4ptLBmr-27" edge="1">
          <mxGeometry relative="1" as="geometry">
            <mxPoint x="360" y="270" as="targetPoint" />
          </mxGeometry>
        </mxCell>
        <mxCell id="6vPPAzTbXYT3v4ptLBmr-7" value="&lt;b&gt;Dashboard&lt;/b&gt;" style="rhombus;whiteSpace=wrap;html=1;" parent="1" vertex="1">
          <mxGeometry x="130" y="230" width="180" height="80" as="geometry" />
        </mxCell>
        <mxCell id="6vPPAzTbXYT3v4ptLBmr-8" style="edgeStyle=orthogonalEdgeStyle;rounded=0;orthogonalLoop=1;jettySize=auto;html=1;" parent="1" source="6vPPAzTbXYT3v4ptLBmr-10" target="6vPPAzTbXYT3v4ptLBmr-13" edge="1">
          <mxGeometry relative="1" as="geometry" />
        </mxCell>
        <mxCell id="6vPPAzTbXYT3v4ptLBmr-9" style="edgeStyle=orthogonalEdgeStyle;rounded=0;orthogonalLoop=1;jettySize=auto;html=1;entryX=0;entryY=0.5;entryDx=0;entryDy=0;" parent="1" source="6vPPAzTbXYT3v4ptLBmr-10" target="6vPPAzTbXYT3v4ptLBmr-29" edge="1">
          <mxGeometry relative="1" as="geometry">
            <mxPoint x="350" y="380" as="targetPoint" />
          </mxGeometry>
        </mxCell>
        <mxCell id="6vPPAzTbXYT3v4ptLBmr-10" value="&lt;b&gt;Surat Masuk&lt;/b&gt;" style="rhombus;whiteSpace=wrap;html=1;" parent="1" vertex="1">
          <mxGeometry x="130" y="340" width="180" height="80" as="geometry" />
        </mxCell>
        <mxCell id="6vPPAzTbXYT3v4ptLBmr-11" style="edgeStyle=orthogonalEdgeStyle;rounded=0;orthogonalLoop=1;jettySize=auto;html=1;entryX=0.5;entryY=0;entryDx=0;entryDy=0;" parent="1" source="6vPPAzTbXYT3v4ptLBmr-13" target="6vPPAzTbXYT3v4ptLBmr-16" edge="1">
          <mxGeometry relative="1" as="geometry">
            <mxPoint x="220" y="580" as="targetPoint" />
          </mxGeometry>
        </mxCell>
        <mxCell id="6vPPAzTbXYT3v4ptLBmr-12" style="edgeStyle=orthogonalEdgeStyle;rounded=0;orthogonalLoop=1;jettySize=auto;html=1;entryX=0;entryY=0.5;entryDx=0;entryDy=0;" parent="1" source="6vPPAzTbXYT3v4ptLBmr-13" edge="1">
          <mxGeometry relative="1" as="geometry">
            <mxPoint x="350" y="500" as="targetPoint" />
          </mxGeometry>
        </mxCell>
        <mxCell id="6vPPAzTbXYT3v4ptLBmr-13" value="&lt;b&gt;Surat Baru&lt;/b&gt;" style="rhombus;whiteSpace=wrap;html=1;" parent="1" vertex="1">
          <mxGeometry x="130" y="460" width="180" height="80" as="geometry" />
        </mxCell>
        <mxCell id="6vPPAzTbXYT3v4ptLBmr-14" style="edgeStyle=orthogonalEdgeStyle;rounded=0;orthogonalLoop=1;jettySize=auto;html=1;entryX=0.5;entryY=0;entryDx=0;entryDy=0;" parent="1" source="6vPPAzTbXYT3v4ptLBmr-16" target="6vPPAzTbXYT3v4ptLBmr-19" edge="1">
          <mxGeometry relative="1" as="geometry" />
        </mxCell>
        <mxCell id="6vPPAzTbXYT3v4ptLBmr-15" style="edgeStyle=orthogonalEdgeStyle;rounded=0;orthogonalLoop=1;jettySize=auto;html=1;entryX=0;entryY=0.5;entryDx=0;entryDy=0;" parent="1" source="6vPPAzTbXYT3v4ptLBmr-16" target="6vPPAzTbXYT3v4ptLBmr-36" edge="1">
          <mxGeometry relative="1" as="geometry" />
        </mxCell>
        <mxCell id="6vPPAzTbXYT3v4ptLBmr-16" value="&lt;b&gt;Tracking&lt;/b&gt;" style="rhombus;whiteSpace=wrap;html=1;" parent="1" vertex="1">
          <mxGeometry x="135" y="585" width="170" height="80" as="geometry" />
        </mxCell>
        <mxCell id="6vPPAzTbXYT3v4ptLBmr-17" style="edgeStyle=orthogonalEdgeStyle;rounded=0;orthogonalLoop=1;jettySize=auto;html=1;entryX=0.5;entryY=0;entryDx=0;entryDy=0;" parent="1" source="6vPPAzTbXYT3v4ptLBmr-19" target="6vPPAzTbXYT3v4ptLBmr-22" edge="1">
          <mxGeometry relative="1" as="geometry" />
        </mxCell>
        <mxCell id="6vPPAzTbXYT3v4ptLBmr-18" style="edgeStyle=orthogonalEdgeStyle;rounded=0;orthogonalLoop=1;jettySize=auto;html=1;entryX=0;entryY=0.5;entryDx=0;entryDy=0;" parent="1" source="6vPPAzTbXYT3v4ptLBmr-19" target="6vPPAzTbXYT3v4ptLBmr-43" edge="1">
          <mxGeometry relative="1" as="geometry" />
        </mxCell>
        <mxCell id="6vPPAzTbXYT3v4ptLBmr-19" value="&lt;b&gt;Cari Surat&lt;/b&gt;" style="rhombus;whiteSpace=wrap;html=1;" parent="1" vertex="1">
          <mxGeometry x="140" y="790" width="160" height="80" as="geometry" />
        </mxCell>
        <mxCell id="6vPPAzTbXYT3v4ptLBmr-20" style="edgeStyle=orthogonalEdgeStyle;rounded=0;orthogonalLoop=1;jettySize=auto;html=1;entryX=0.5;entryY=0;entryDx=0;entryDy=0;" parent="1" source="6vPPAzTbXYT3v4ptLBmr-22" target="6vPPAzTbXYT3v4ptLBmr-66" edge="1">
          <mxGeometry relative="1" as="geometry">
            <mxPoint x="221.25" y="1169" as="targetPoint" />
          </mxGeometry>
        </mxCell>
        <mxCell id="6vPPAzTbXYT3v4ptLBmr-21" style="edgeStyle=orthogonalEdgeStyle;rounded=0;orthogonalLoop=1;jettySize=auto;html=1;" parent="1" source="6vPPAzTbXYT3v4ptLBmr-22" target="6vPPAzTbXYT3v4ptLBmr-49" edge="1">
          <mxGeometry relative="1" as="geometry" />
        </mxCell>
        <mxCell id="6vPPAzTbXYT3v4ptLBmr-22" value="&lt;b&gt;Ubah Profil&lt;/b&gt;" style="rhombus;whiteSpace=wrap;html=1;" parent="1" vertex="1">
          <mxGeometry x="138" y="920" width="164" height="80" as="geometry" />
        </mxCell>
        <mxCell id="6vPPAzTbXYT3v4ptLBmr-26" style="edgeStyle=orthogonalEdgeStyle;rounded=0;orthogonalLoop=1;jettySize=auto;html=1;" parent="1" source="6vPPAzTbXYT3v4ptLBmr-27" target="6vPPAzTbXYT3v4ptLBmr-67" edge="1">
          <mxGeometry relative="1" as="geometry">
            <mxPoint x="1250" y="1480" as="targetPoint" />
            <Array as="points">
              <mxPoint x="1130" y="270" />
              <mxPoint x="1130" y="1290" />
            </Array>
          </mxGeometry>
        </mxCell>
        <mxCell id="6vPPAzTbXYT3v4ptLBmr-27" value="Tabel&amp;nbsp; Surat Masuk, Surat Keluar, Surat Disposisi" style="shape=parallelogram;perimeter=parallelogramPerimeter;whiteSpace=wrap;html=1;fixedSize=1;" parent="1" vertex="1">
          <mxGeometry x="354" y="240" width="166" height="60" as="geometry" />
        </mxCell>
        <mxCell id="6vPPAzTbXYT3v4ptLBmr-28" style="edgeStyle=orthogonalEdgeStyle;rounded=0;orthogonalLoop=1;jettySize=auto;html=1;" parent="1" source="6vPPAzTbXYT3v4ptLBmr-29" target="6vPPAzTbXYT3v4ptLBmr-31" edge="1">
          <mxGeometry relative="1" as="geometry" />
        </mxCell>
        <mxCell id="6vPPAzTbXYT3v4ptLBmr-29" value="Surat Masuk" style="shape=parallelogram;perimeter=parallelogramPerimeter;whiteSpace=wrap;html=1;fixedSize=1;" parent="1" vertex="1">
          <mxGeometry x="350" y="350" width="166" height="60" as="geometry" />
        </mxCell>
        <mxCell id="6vPPAzTbXYT3v4ptLBmr-30" style="edgeStyle=orthogonalEdgeStyle;rounded=0;orthogonalLoop=1;jettySize=auto;html=1;entryX=0;entryY=0.333;entryDx=0;entryDy=0;entryPerimeter=0;" parent="1" source="6vPPAzTbXYT3v4ptLBmr-31" edge="1">
          <mxGeometry relative="1" as="geometry">
            <mxPoint x="730" y="379.98" as="targetPoint" />
          </mxGeometry>
        </mxCell>
        <mxCell id="6vPPAzTbXYT3v4ptLBmr-31" value="Aksi Surat" style="rounded=0;whiteSpace=wrap;html=1;" parent="1" vertex="1">
          <mxGeometry x="560" y="360" width="120" height="40" as="geometry" />
        </mxCell>
        <mxCell id="6vPPAzTbXYT3v4ptLBmr-35" style="edgeStyle=orthogonalEdgeStyle;rounded=0;orthogonalLoop=1;jettySize=auto;html=1;" parent="1" source="6vPPAzTbXYT3v4ptLBmr-36" edge="1">
          <mxGeometry relative="1" as="geometry">
            <mxPoint x="530" y="625" as="targetPoint" />
          </mxGeometry>
        </mxCell>
        <mxCell id="6vPPAzTbXYT3v4ptLBmr-36" value="Input Nomor Surat" style="shape=parallelogram;perimeter=parallelogramPerimeter;whiteSpace=wrap;html=1;fixedSize=1;" parent="1" vertex="1">
          <mxGeometry x="340" y="595" width="156" height="60" as="geometry" />
        </mxCell>
        <mxCell id="6vPPAzTbXYT3v4ptLBmr-37" style="edgeStyle=orthogonalEdgeStyle;rounded=0;orthogonalLoop=1;jettySize=auto;html=1;entryX=0;entryY=0.5;entryDx=0;entryDy=0;" parent="1" source="6vPPAzTbXYT3v4ptLBmr-39" target="6vPPAzTbXYT3v4ptLBmr-40" edge="1">
          <mxGeometry relative="1" as="geometry" />
        </mxCell>
        <mxCell id="6vPPAzTbXYT3v4ptLBmr-38" style="edgeStyle=orthogonalEdgeStyle;rounded=0;orthogonalLoop=1;jettySize=auto;html=1;entryX=1;entryY=0.5;entryDx=0;entryDy=0;" parent="1" source="6vPPAzTbXYT3v4ptLBmr-39" target="6vPPAzTbXYT3v4ptLBmr-41" edge="1">
          <mxGeometry relative="1" as="geometry">
            <mxPoint x="580" y="740" as="targetPoint" />
            <Array as="points">
              <mxPoint x="580" y="730" />
            </Array>
          </mxGeometry>
        </mxCell>
        <mxCell id="6vPPAzTbXYT3v4ptLBmr-39" value="Data Surat &lt;br&gt;Ada?" style="rhombus;whiteSpace=wrap;html=1;" parent="1" vertex="1">
          <mxGeometry x="530" y="585" width="100" height="80" as="geometry" />
        </mxCell>
        <mxCell id="6vPPAzTbXYT3v4ptLBmr-40" value="Hasil Tracking" style="shape=parallelogram;perimeter=parallelogramPerimeter;whiteSpace=wrap;html=1;fixedSize=1;" parent="1" vertex="1">
          <mxGeometry x="671" y="596" width="166" height="60" as="geometry" />
        </mxCell>
        <mxCell id="6vPPAzTbXYT3v4ptLBmr-41" value="Surat Tidak Ditemukan" style="shape=parallelogram;perimeter=parallelogramPerimeter;whiteSpace=wrap;html=1;fixedSize=1;" parent="1" vertex="1">
          <mxGeometry x="330" y="700" width="151" height="60" as="geometry" />
        </mxCell>
        <mxCell id="6vPPAzTbXYT3v4ptLBmr-42" style="edgeStyle=orthogonalEdgeStyle;rounded=0;orthogonalLoop=1;jettySize=auto;html=1;entryX=0;entryY=0.5;entryDx=0;entryDy=0;" parent="1" source="6vPPAzTbXYT3v4ptLBmr-43" target="6vPPAzTbXYT3v4ptLBmr-45" edge="1">
          <mxGeometry relative="1" as="geometry" />
        </mxCell>
        <mxCell id="6vPPAzTbXYT3v4ptLBmr-43" value="Input informasi Surat" style="shape=parallelogram;perimeter=parallelogramPerimeter;whiteSpace=wrap;html=1;fixedSize=1;" parent="1" vertex="1">
          <mxGeometry x="330" y="800" width="146" height="60" as="geometry" />
        </mxCell>
        <mxCell id="6vPPAzTbXYT3v4ptLBmr-44" style="edgeStyle=orthogonalEdgeStyle;rounded=0;orthogonalLoop=1;jettySize=auto;html=1;entryX=0;entryY=0.5;entryDx=0;entryDy=0;" parent="1" source="6vPPAzTbXYT3v4ptLBmr-45" target="6vPPAzTbXYT3v4ptLBmr-46" edge="1">
          <mxGeometry relative="1" as="geometry" />
        </mxCell>
        <mxCell id="6vPPAzTbXYT3v4ptLBmr-45" value="Data Surat &lt;br&gt;Ada?" style="rhombus;whiteSpace=wrap;html=1;" parent="1" vertex="1">
          <mxGeometry x="530" y="790" width="100" height="80" as="geometry" />
        </mxCell>
        <mxCell id="6vPPAzTbXYT3v4ptLBmr-46" value="Hasil Pencarian Surat" style="shape=parallelogram;perimeter=parallelogramPerimeter;whiteSpace=wrap;html=1;fixedSize=1;" parent="1" vertex="1">
          <mxGeometry x="677" y="800" width="166" height="60" as="geometry" />
        </mxCell>
        <mxCell id="6vPPAzTbXYT3v4ptLBmr-47" value="" style="endArrow=classic;html=1;rounded=0;entryX=0.5;entryY=1;entryDx=0;entryDy=0;exitX=0.567;exitY=0.023;exitDx=0;exitDy=0;exitPerimeter=0;" parent="1" source="6vPPAzTbXYT3v4ptLBmr-41" edge="1">
          <mxGeometry width="50" height="50" relative="1" as="geometry">
            <mxPoint x="417.996" y="700" as="sourcePoint" />
            <mxPoint x="416" y="655" as="targetPoint" />
          </mxGeometry>
        </mxCell>
        <mxCell id="6vPPAzTbXYT3v4ptLBmr-48" style="edgeStyle=orthogonalEdgeStyle;rounded=0;orthogonalLoop=1;jettySize=auto;html=1;entryX=0;entryY=0.5;entryDx=0;entryDy=0;" parent="1" source="6vPPAzTbXYT3v4ptLBmr-49" target="6vPPAzTbXYT3v4ptLBmr-51" edge="1">
          <mxGeometry relative="1" as="geometry" />
        </mxCell>
        <mxCell id="6vPPAzTbXYT3v4ptLBmr-49" value="Isi Data" style="shape=parallelogram;perimeter=parallelogramPerimeter;whiteSpace=wrap;html=1;fixedSize=1;" parent="1" vertex="1">
          <mxGeometry x="330" y="930" width="146" height="60" as="geometry" />
        </mxCell>
        <mxCell id="6vPPAzTbXYT3v4ptLBmr-50" style="edgeStyle=orthogonalEdgeStyle;rounded=0;orthogonalLoop=1;jettySize=auto;html=1;" parent="1" source="6vPPAzTbXYT3v4ptLBmr-51" target="6vPPAzTbXYT3v4ptLBmr-54" edge="1">
          <mxGeometry relative="1" as="geometry" />
        </mxCell>
        <mxCell id="6vPPAzTbXYT3v4ptLBmr-51" value="Upload Foto" style="rounded=0;whiteSpace=wrap;html=1;" parent="1" vertex="1">
          <mxGeometry x="530" y="940" width="120" height="40" as="geometry" />
        </mxCell>
        <mxCell id="6vPPAzTbXYT3v4ptLBmr-52" style="edgeStyle=orthogonalEdgeStyle;rounded=0;orthogonalLoop=1;jettySize=auto;html=1;entryX=0;entryY=0.5;entryDx=0;entryDy=0;" parent="1" source="6vPPAzTbXYT3v4ptLBmr-54" target="6vPPAzTbXYT3v4ptLBmr-55" edge="1">
          <mxGeometry relative="1" as="geometry" />
        </mxCell>
        <mxCell id="6vPPAzTbXYT3v4ptLBmr-53" style="edgeStyle=orthogonalEdgeStyle;rounded=0;orthogonalLoop=1;jettySize=auto;html=1;entryX=0.5;entryY=1;entryDx=0;entryDy=0;entryPerimeter=0;" parent="1" source="6vPPAzTbXYT3v4ptLBmr-54" target="6vPPAzTbXYT3v4ptLBmr-56" edge="1">
          <mxGeometry relative="1" as="geometry" />
        </mxCell>
        <mxCell id="6vPPAzTbXYT3v4ptLBmr-54" value="Data Valid" style="rhombus;whiteSpace=wrap;html=1;" parent="1" vertex="1">
          <mxGeometry x="700" y="920" width="100" height="80" as="geometry" />
        </mxCell>
        <mxCell id="6vPPAzTbXYT3v4ptLBmr-55" value="Profil Terubah" style="shape=parallelogram;perimeter=parallelogramPerimeter;whiteSpace=wrap;html=1;fixedSize=1;" parent="1" vertex="1">
          <mxGeometry x="850" y="930" width="146" height="60" as="geometry" />
        </mxCell>
        <mxCell id="6vPPAzTbXYT3v4ptLBmr-56" value="" style="shape=cylinder3;whiteSpace=wrap;html=1;boundedLbl=1;backgroundOutline=1;size=15;lid=0;rotation=90;" parent="1" vertex="1">
          <mxGeometry x="810" y="1006" width="70" height="140" as="geometry" />
        </mxCell>
        <mxCell id="6vPPAzTbXYT3v4ptLBmr-57" style="edgeStyle=orthogonalEdgeStyle;rounded=0;orthogonalLoop=1;jettySize=auto;html=1;entryX=0.5;entryY=0;entryDx=0;entryDy=0;" parent="1" target="6vPPAzTbXYT3v4ptLBmr-49" edge="1">
          <mxGeometry relative="1" as="geometry">
            <mxPoint x="390" y="920" as="targetPoint" />
            <mxPoint x="900" y="1080" as="sourcePoint" />
            <Array as="points">
              <mxPoint x="1060" y="1076" />
              <mxPoint x="1060" y="880" />
              <mxPoint x="403" y="880" />
            </Array>
          </mxGeometry>
        </mxCell>
        <mxCell id="6vPPAzTbXYT3v4ptLBmr-58" value="Menampilkan&amp;nbsp;&lt;br&gt;Pesan Gagal&lt;br&gt;Ubah Profill" style="text;html=1;strokeColor=none;fillColor=none;align=center;verticalAlign=middle;whiteSpace=wrap;rounded=0;" parent="1" vertex="1">
          <mxGeometry x="785" y="1061" width="120" height="30" as="geometry" />
        </mxCell>
        <mxCell id="6vPPAzTbXYT3v4ptLBmr-61" style="edgeStyle=orthogonalEdgeStyle;rounded=0;orthogonalLoop=1;jettySize=auto;html=1;entryX=0.5;entryY=1;entryDx=0;entryDy=0;" parent="1" edge="1">
          <mxGeometry relative="1" as="geometry">
            <mxPoint x="425" y="1240" as="targetPoint" />
            <Array as="points">
              <mxPoint x="600" y="1340" />
              <mxPoint x="425" y="1340" />
            </Array>
          </mxGeometry>
        </mxCell>
        <mxCell id="6vPPAzTbXYT3v4ptLBmr-65" style="edgeStyle=orthogonalEdgeStyle;rounded=0;orthogonalLoop=1;jettySize=auto;html=1;entryX=0.5;entryY=0;entryDx=0;entryDy=0;entryPerimeter=0;" parent="1" source="6vPPAzTbXYT3v4ptLBmr-66" target="6vPPAzTbXYT3v4ptLBmr-67" edge="1">
          <mxGeometry relative="1" as="geometry" />
        </mxCell>
        <mxCell id="6vPPAzTbXYT3v4ptLBmr-89" style="edgeStyle=orthogonalEdgeStyle;rounded=0;orthogonalLoop=1;jettySize=auto;html=1;entryX=0;entryY=0.5;entryDx=0;entryDy=0;" parent="1" source="6vPPAzTbXYT3v4ptLBmr-66" target="6vPPAzTbXYT3v4ptLBmr-4" edge="1">
          <mxGeometry relative="1" as="geometry">
            <mxPoint x="150" y="180" as="targetPoint" />
            <Array as="points">
              <mxPoint x="50" y="1160" />
              <mxPoint x="50" y="180" />
            </Array>
          </mxGeometry>
        </mxCell>
        <mxCell id="6vPPAzTbXYT3v4ptLBmr-66" value="&lt;b&gt;Logout&lt;/b&gt;" style="rounded=1;whiteSpace=wrap;html=1;fontSize=12;glass=0;strokeWidth=1;shadow=0;" parent="1" vertex="1">
          <mxGeometry x="186.25" y="1140" width="70" height="40" as="geometry" />
        </mxCell>
        <mxCell id="6vPPAzTbXYT3v4ptLBmr-67" value="Selesai" style="strokeWidth=2;html=1;shape=mxgraph.flowchart.terminator;whiteSpace=wrap;" parent="1" vertex="1">
          <mxGeometry x="146.25" y="1260" width="150" height="60" as="geometry" />
        </mxCell>
        <mxCell id="6vPPAzTbXYT3v4ptLBmr-69" value="" style="endArrow=none;html=1;rounded=0;exitX=1;exitY=0.5;exitDx=0;exitDy=0;" parent="1" source="6vPPAzTbXYT3v4ptLBmr-55" edge="1">
          <mxGeometry width="50" height="50" relative="1" as="geometry">
            <mxPoint x="750" y="1270" as="sourcePoint" />
            <mxPoint x="1130" y="960" as="targetPoint" />
          </mxGeometry>
        </mxCell>
        <mxCell id="6vPPAzTbXYT3v4ptLBmr-70" value="" style="endArrow=none;html=1;rounded=0;exitX=1;exitY=0.5;exitDx=0;exitDy=0;" parent="1" source="6vPPAzTbXYT3v4ptLBmr-46" edge="1">
          <mxGeometry width="50" height="50" relative="1" as="geometry">
            <mxPoint x="750" y="1270" as="sourcePoint" />
            <mxPoint x="1130" y="830" as="targetPoint" />
          </mxGeometry>
        </mxCell>
        <mxCell id="6vPPAzTbXYT3v4ptLBmr-71" value="" style="endArrow=none;html=1;rounded=0;exitX=1;exitY=0.5;exitDx=0;exitDy=0;" parent="1" source="6vPPAzTbXYT3v4ptLBmr-40" edge="1">
          <mxGeometry width="50" height="50" relative="1" as="geometry">
            <mxPoint x="880" y="670" as="sourcePoint" />
            <mxPoint x="1130" y="626" as="targetPoint" />
          </mxGeometry>
        </mxCell>
        <mxCell id="6vPPAzTbXYT3v4ptLBmr-72" value="" style="endArrow=none;html=1;rounded=0;exitX=1;exitY=0.5;exitDx=0;exitDy=0;" parent="1" source="6vPPAzTbXYT3v4ptLBmr-77" edge="1">
          <mxGeometry width="50" height="50" relative="1" as="geometry">
            <mxPoint x="990" y="500" as="sourcePoint" />
            <mxPoint x="1130" y="506" as="targetPoint" />
          </mxGeometry>
        </mxCell>
        <mxCell id="6vPPAzTbXYT3v4ptLBmr-73" value="" style="endArrow=none;html=1;rounded=0;" parent="1" edge="1">
          <mxGeometry width="50" height="50" relative="1" as="geometry">
            <mxPoint x="780" y="380" as="sourcePoint" />
            <mxPoint x="1130" y="380" as="targetPoint" />
          </mxGeometry>
        </mxCell>
        <mxCell id="6vPPAzTbXYT3v4ptLBmr-78" style="edgeStyle=orthogonalEdgeStyle;rounded=0;orthogonalLoop=1;jettySize=auto;html=1;" parent="1" source="6vPPAzTbXYT3v4ptLBmr-74" target="6vPPAzTbXYT3v4ptLBmr-75" edge="1">
          <mxGeometry relative="1" as="geometry" />
        </mxCell>
        <mxCell id="6vPPAzTbXYT3v4ptLBmr-74" value="Surat Baru" style="shape=parallelogram;perimeter=parallelogramPerimeter;whiteSpace=wrap;html=1;fixedSize=1;" parent="1" vertex="1">
          <mxGeometry x="339" y="476" width="166" height="60" as="geometry" />
        </mxCell>
        <mxCell id="6vPPAzTbXYT3v4ptLBmr-79" style="edgeStyle=orthogonalEdgeStyle;rounded=0;orthogonalLoop=1;jettySize=auto;html=1;" parent="1" source="6vPPAzTbXYT3v4ptLBmr-75" target="6vPPAzTbXYT3v4ptLBmr-76" edge="1">
          <mxGeometry relative="1" as="geometry" />
        </mxCell>
        <mxCell id="6vPPAzTbXYT3v4ptLBmr-75" value="Pilih Detail" style="rounded=0;whiteSpace=wrap;html=1;" parent="1" vertex="1">
          <mxGeometry x="551" y="486" width="120" height="40" as="geometry" />
        </mxCell>
        <mxCell id="6vPPAzTbXYT3v4ptLBmr-80" value="" style="edgeStyle=orthogonalEdgeStyle;rounded=0;orthogonalLoop=1;jettySize=auto;html=1;" parent="1" source="6vPPAzTbXYT3v4ptLBmr-76" target="6vPPAzTbXYT3v4ptLBmr-77" edge="1">
          <mxGeometry relative="1" as="geometry" />
        </mxCell>
        <mxCell id="6vPPAzTbXYT3v4ptLBmr-76" value="Input Disposisi" style="rounded=0;whiteSpace=wrap;html=1;" parent="1" vertex="1">
          <mxGeometry x="723" y="486" width="120" height="40" as="geometry" />
        </mxCell>
        <mxCell id="6vPPAzTbXYT3v4ptLBmr-77" value="Kirim&amp;nbsp; Disposisi" style="rounded=0;whiteSpace=wrap;html=1;" parent="1" vertex="1">
          <mxGeometry x="890" y="486" width="120" height="40" as="geometry" />
        </mxCell>
        <mxCell id="6vPPAzTbXYT3v4ptLBmr-81" value="YA" style="text;html=1;strokeColor=none;fillColor=none;align=center;verticalAlign=middle;whiteSpace=wrap;rounded=0;" parent="1" vertex="1">
          <mxGeometry x="300" y="240" width="60" height="30" as="geometry" />
        </mxCell>
        <mxCell id="6vPPAzTbXYT3v4ptLBmr-82" value="YA" style="text;html=1;strokeColor=none;fillColor=none;align=center;verticalAlign=middle;whiteSpace=wrap;rounded=0;" parent="1" vertex="1">
          <mxGeometry x="300" y="350" width="60" height="30" as="geometry" />
        </mxCell>
        <mxCell id="6vPPAzTbXYT3v4ptLBmr-83" value="YA" style="text;html=1;strokeColor=none;fillColor=none;align=center;verticalAlign=middle;whiteSpace=wrap;rounded=0;" parent="1" vertex="1">
          <mxGeometry x="302" y="470" width="60" height="30" as="geometry" />
        </mxCell>
        <mxCell id="6vPPAzTbXYT3v4ptLBmr-84" value="YA" style="text;html=1;strokeColor=none;fillColor=none;align=center;verticalAlign=middle;whiteSpace=wrap;rounded=0;" parent="1" vertex="1">
          <mxGeometry x="295" y="595" width="60" height="30" as="geometry" />
        </mxCell>
        <mxCell id="6vPPAzTbXYT3v4ptLBmr-85" value="YA" style="text;html=1;strokeColor=none;fillColor=none;align=center;verticalAlign=middle;whiteSpace=wrap;rounded=0;" parent="1" vertex="1">
          <mxGeometry x="294" y="800" width="60" height="30" as="geometry" />
        </mxCell>
        <mxCell id="6vPPAzTbXYT3v4ptLBmr-86" value="YA" style="text;html=1;strokeColor=none;fillColor=none;align=center;verticalAlign=middle;whiteSpace=wrap;rounded=0;" parent="1" vertex="1">
          <mxGeometry x="290" y="930" width="60" height="30" as="geometry" />
        </mxCell>
        <mxCell id="6vPPAzTbXYT3v4ptLBmr-88" value="TIDAK" style="text;html=1;strokeColor=none;fillColor=none;align=center;verticalAlign=middle;whiteSpace=wrap;rounded=0;" parent="1" vertex="1">
          <mxGeometry x="126.25" y="1130" width="60" height="30" as="geometry" />
        </mxCell>
        <mxCell id="6vPPAzTbXYT3v4ptLBmr-90" value="TIDAK" style="text;html=1;strokeColor=none;fillColor=none;align=center;verticalAlign=middle;whiteSpace=wrap;rounded=0;" parent="1" vertex="1">
          <mxGeometry x="230" y="1061" width="60" height="30" as="geometry" />
        </mxCell>
        <mxCell id="6vPPAzTbXYT3v4ptLBmr-91" value="TIDAK" style="text;html=1;strokeColor=none;fillColor=none;align=center;verticalAlign=middle;whiteSpace=wrap;rounded=0;" parent="1" vertex="1">
          <mxGeometry x="220" y="870" width="60" height="30" as="geometry" />
        </mxCell>
        <mxCell id="6vPPAzTbXYT3v4ptLBmr-92" value="TIDAK" style="text;html=1;strokeColor=none;fillColor=none;align=center;verticalAlign=middle;whiteSpace=wrap;rounded=0;" parent="1" vertex="1">
          <mxGeometry x="215" y="715" width="60" height="30" as="geometry" />
        </mxCell>
        <mxCell id="6vPPAzTbXYT3v4ptLBmr-93" value="TIDAK" style="text;html=1;strokeColor=none;fillColor=none;align=center;verticalAlign=middle;whiteSpace=wrap;rounded=0;" parent="1" vertex="1">
          <mxGeometry x="210" y="550" width="60" height="30" as="geometry" />
        </mxCell>
        <mxCell id="6vPPAzTbXYT3v4ptLBmr-94" value="TIDAK" style="text;html=1;strokeColor=none;fillColor=none;align=center;verticalAlign=middle;whiteSpace=wrap;rounded=0;" parent="1" vertex="1">
          <mxGeometry x="220" y="420" width="60" height="30" as="geometry" />
        </mxCell>
        <mxCell id="6vPPAzTbXYT3v4ptLBmr-95" value="TIDAK" style="text;html=1;strokeColor=none;fillColor=none;align=center;verticalAlign=middle;whiteSpace=wrap;rounded=0;" parent="1" vertex="1">
          <mxGeometry x="230" y="310" width="60" height="30" as="geometry" />
        </mxCell>
        <mxCell id="6vPPAzTbXYT3v4ptLBmr-96" value="YA" style="text;html=1;strokeColor=none;fillColor=none;align=center;verticalAlign=middle;whiteSpace=wrap;rounded=0;" parent="1" vertex="1">
          <mxGeometry x="220" y="1200" width="60" height="30" as="geometry" />
        </mxCell>
        <mxCell id="3zD3zuiKgKqOkrROVnMK-2" style="edgeStyle=orthogonalEdgeStyle;rounded=0;orthogonalLoop=1;jettySize=auto;html=1;entryX=0.5;entryY=0;entryDx=0;entryDy=0;" parent="1" source="3zD3zuiKgKqOkrROVnMK-1" target="6vPPAzTbXYT3v4ptLBmr-2" edge="1">
          <mxGeometry relative="1" as="geometry" />
        </mxCell>
        <mxCell id="3zD3zuiKgKqOkrROVnMK-1" value="C" style="shape=offPageConnector;whiteSpace=wrap;html=1;" parent="1" vertex="1">
          <mxGeometry x="195" y="-40" width="50" height="50" as="geometry" />
        </mxCell>
        <mxCell id="zwBPtma4Oo1Y2TxKQNOi-1" value="F&lt;br&gt;" style="shape=offPageConnector;whiteSpace=wrap;html=1;" vertex="1" parent="1">
          <mxGeometry x="735" y="355" width="50" height="50" as="geometry" />
        </mxCell>
      </root>
    </mxGraphModel>
  </diagram>
</mxfile>
